<svg xmlns="http://www.w3.org/2000/svg" viewBox="0 0 24 24"><g fill="currentColor"><path d="M21.997 7.486c0-.038-.012-.074-.022-.11-.007-.028-.01-.056-.02-.08-.014-.03-.035-.053-.054-.08-.019-.026-.033-.054-.057-.076-.02-.019-.045-.03-.068-.046-.031-.021-.06-.044-.097-.058-.004-.002-.007-.006-.012-.007-.026-.01-.053-.007-.08-.011C21.559 7.012 21.532 7 21.5 7H5.61l-.886-2.658A.5.5 0 004.25 4H1.5a.5.5 0 100 1h2.39l.886 2.658A.5.5 0 005.25 8h15.542l-2.47 6.966H7.875L6.23 9.359a.5.5 0 00-.96.281l1.75 5.966a.5.5 0 00.48.36h11.176c.212 0 .4-.134.472-.333l2.824-7.966c.01-.03.008-.059.012-.089.004-.026.016-.05.016-.078 0-.005-.003-.009-.003-.014zm-5.979 9.48c-1.113 0-2.018.904-2.018 2.016S14.905 21 16.018 21a2.018 2.018 0 000-4.034zm0 3.034a1.018 1.018 0 010-2.034 1.018 1.018 0 010 2.034zm-6.001-3.034C8.905 16.966 8 17.87 8 18.982S8.905 21 10.017 21s2.018-.905 2.018-2.018-.906-2.016-2.018-2.016zm0 3.034a1.018 1.018 0 010-2.034c.561 0 1.018.456 1.018 1.016 0 .562-.457 1.018-1.018 1.018z"/></g></svg>