<svg xmlns="http://www.w3.org/2000/svg" viewBox="0 0 24 24">
<g fill="currentColor">
<path d="M19.002 10.02a.5.5 0 00-.5-.5h-10.5a.5.5 0 100 1h10.5a.5.5 0 00.5-.5zm-10 2a.5.5 0 100 1h8.5a.5.5 0 100-1h-8.5z"/>
<path d="M22 7.507c-.002-.039-.013-.074-.023-.111-.007-.027-.01-.055-.02-.08-.014-.029-.035-.053-.054-.079-.018-.026-.033-.054-.056-.076-.02-.02-.046-.03-.069-.046-.031-.022-.06-.044-.097-.058-.004-.002-.007-.006-.012-.008-.026-.009-.053-.006-.08-.01-.03-.006-.056-.018-.087-.018H5.612l-.885-2.659a.501.501 0 00-.475-.341h-2.75a.5.5 0 100 1h2.39l.886 2.658c.068.204.26.342.474.342h15.542l-2.47 6.965H7.877L6.232 9.38a.5.5 0 00-.96.281l1.75 5.966a.5.5 0 00.48.36h11.176c.212 0 .4-.134.472-.334l2.824-7.965c.01-.03.008-.06.012-.089.005-.027.016-.05.016-.078L22 7.507zm-5.98 9.479c-1.112 0-2.018.905-2.018 2.017s.905 2.018 2.018 2.018 2.016-.906 2.016-2.018-.904-2.017-2.016-2.017zm0 3.035a1.018 1.018 0 010-2.035 1.018 1.018 0 010 2.035zm-6-3.035c-1.112 0-2.018.905-2.018 2.017s.905 2.018 2.018 2.018 2.016-.906 2.016-2.018-.904-2.017-2.016-2.017zm0 3.035a1.018 1.018 0 010-2.035 1.018 1.018 0 010 2.035z"/>
</g>
</svg>