
<svg viewBox="0 0 22 22" fill="currentColor" xmlns="http://www.w3.org/2000/svg"><path fill-rule="evenodd" clip-rule="evenodd" d="M21.838 10.21c-.189-3.913-2.563-7.63-6.152-9.258C11.812-.804 7.115-.07 3.886 2.658.818 5.251-.622 9.432.253 13.352c.868 3.892 3.842 7.05 7.715 8.084 4.579 1.222 8.761-.94 11.333-4.703-2.333 3.109-5.85 5.161-9.837 4.473-3.926-.677-7.15-3.662-8.047-7.547-.956-4.137.956-8.472 4.652-10.57C9.902.913 15.211 1.716 17.763 5.447c.636.93 1.082 2 1.315 3.1.198.934.115 1.867.252 2.799.122.82.848 1.96 1.795 1.347.82-.532.766-1.638.713-2.483-.011-.235.03.47 0 0" fill=""/></svg>